<svg width="24" height="85" viewBox="0 0 24 85" xmlns="http://www.w3.org/2000/svg"><title>Artboard</title><g stroke="#979797" fill="none" fill-rule="evenodd"><path d="M10.23 1.02c-.23 11.28-.23 20 0 26.17.18 5.16 2.17 10.72 2.17 16.17 0 15.2-.73 29.32-2.17 42.35" stroke-width="1.4"/><path d="M11.6 71.2l7.72 8.4M12.82 58.07l7.6 7.42M12.77 45.98l7.48 7.3M11.34 32.55l8.85 7.87M10.3 22.52l9.8 7.85M10.6 11.03l8.94 7.16M11.64 71.92l-6.9 6.75M12.84 58.2l-8.1 6.6M12.67 46.7l-8.2 5.95M11.4 32.92l-7.08 5.76M10.58 22.64L2.7 28.76M10.54 10.8l-8.66 7.9"/></g></svg>