<svg width="57" height="25" viewBox="0 0 57 25" xmlns="http://www.w3.org/2000/svg"><g stroke="#979797" fill="none" fill-rule="evenodd"><path d="M1 1c.6 7.68 2.6 12.82 5.94 15.4 4.55 3.54 12.77 8.32 21.47 8.04 10.98-.35 19.33-6.15 23.72-11.7 1.94-2.48 3.18-6.4 3.7-11.74" stroke-width="1.4"/><path d="M5.76 15.2V1.26M8.82 17.52V1.12M11.4 19.24V1.27M13.98 20.4V1.4M16.85 21.92V1.48M20.16 23.36V1.5M23.6 24.3V1.5M26.7 24.3V1.44M30.36 24.16V1.48M33.8 23.86V1.88M37.27 23.05V1.75M40.7 21.74V1.7M44.4 19.76V1.73M47.53 17.6V1.38M51.47 13.5V1.68"/></g></svg>