<svg width="17" height="80" viewBox="0 0 17 80" xmlns="http://www.w3.org/2000/svg"><title>Zajeda 2</title><g stroke="#979797" fill="none" fill-rule="evenodd"><path d="M6.23 80.98C6 69.7 6 60.98 6.23 54.8 6.4 49.65 8.4 44.1 8.4 38.64c0-15.2-.73-29.32-2.17-42.35" stroke-width="1.4"/><path d="M7.6 10.8l7.72-8.4M8.82 23.93l7.6-7.42M8.77 36.02l7.48-7.3M7.34 49.45l8.85-7.87M6.3 59.48l9.8-7.85M6.6 70.97l8.94-7.16M7.64 10.08L.74 3.33M8.84 23.8l-8.1-6.6M8.67 35.3l-8.2-5.95M7.4 49.08L.32 43.32M6.58 59.36l-7.87-6.12M6.54 71.2l-8.66-7.9"/></g></svg>